<mxfile host="app.diagrams.net" agent="Mozilla/5.0 (Macintosh; Intel Mac OS X 10_15_7) AppleWebKit/537.36 (KHTML, like Gecko) Chrome/135.0.0.0 Safari/537.36" version="26.2.15">
  <diagram name="Page-1" id="9f46799a-70d6-7492-0946-bef42562c5a5">
    <mxGraphModel dx="3733" dy="2017" grid="1" gridSize="10" guides="1" tooltips="1" connect="1" arrows="1" fold="1" page="1" pageScale="1" pageWidth="1100" pageHeight="850" background="none" math="0" shadow="0">
      <root>
        <mxCell id="0" />
        <mxCell id="1" parent="0" />
        <mxCell id="RacKedVcGH4FQBCkD5BQ-1" value="TypeOfThrow" style="swimlane;html=1;fontStyle=1;align=center;verticalAlign=top;childLayout=stackLayout;horizontal=1;startSize=26;horizontalStack=0;resizeParent=1;resizeLast=0;collapsible=1;marginBottom=0;swimlaneFillColor=#ffffff;rounded=0;shadow=0;comic=0;labelBackgroundColor=none;strokeWidth=1;fillColor=none;fontFamily=Verdana;fontSize=12" vertex="1" parent="1">
          <mxGeometry x="-260" y="-480" width="200" height="190" as="geometry" />
        </mxCell>
        <mxCell id="RacKedVcGH4FQBCkD5BQ-3" value="speed: float" style="text;html=1;strokeColor=none;fillColor=none;align=left;verticalAlign=top;spacingLeft=4;spacingRight=4;whiteSpace=wrap;overflow=hidden;rotatable=0;points=[[0,0.5],[1,0.5]];portConstraint=eastwest;" vertex="1" parent="RacKedVcGH4FQBCkD5BQ-1">
          <mxGeometry y="26" width="200" height="26" as="geometry" />
        </mxCell>
        <mxCell id="RacKedVcGH4FQBCkD5BQ-4" value="accuracy: float (percentage)" style="text;html=1;strokeColor=none;fillColor=none;align=left;verticalAlign=top;spacingLeft=4;spacingRight=4;whiteSpace=wrap;overflow=hidden;rotatable=0;points=[[0,0.5],[1,0.5]];portConstraint=eastwest;" vertex="1" parent="RacKedVcGH4FQBCkD5BQ-1">
          <mxGeometry y="52" width="200" height="26" as="geometry" />
        </mxCell>
        <mxCell id="RacKedVcGH4FQBCkD5BQ-5" value="Trajectory: vector3" style="text;html=1;strokeColor=none;fillColor=none;align=left;verticalAlign=top;spacingLeft=4;spacingRight=4;whiteSpace=wrap;overflow=hidden;rotatable=0;points=[[0,0.5],[1,0.5]];portConstraint=eastwest;" vertex="1" parent="RacKedVcGH4FQBCkD5BQ-1">
          <mxGeometry y="78" width="200" height="26" as="geometry" />
        </mxCell>
        <mxCell id="RacKedVcGH4FQBCkD5BQ-6" value="" style="line;html=1;strokeWidth=1;fillColor=none;align=left;verticalAlign=middle;spacingTop=-1;spacingLeft=3;spacingRight=3;rotatable=0;labelPosition=right;points=[];portConstraint=eastwest;" vertex="1" parent="RacKedVcGH4FQBCkD5BQ-1">
          <mxGeometry y="104" width="200" height="8" as="geometry" />
        </mxCell>
        <mxCell id="RacKedVcGH4FQBCkD5BQ-7" value="calculateTrajectory(target): Vector3" style="text;html=1;strokeColor=none;fillColor=none;align=left;verticalAlign=top;spacingLeft=4;spacingRight=4;whiteSpace=wrap;overflow=hidden;rotatable=0;points=[[0,0.5],[1,0.5]];portConstraint=eastwest;" vertex="1" parent="RacKedVcGH4FQBCkD5BQ-1">
          <mxGeometry y="112" width="200" height="26" as="geometry" />
        </mxCell>
        <mxCell id="RacKedVcGH4FQBCkD5BQ-8" value="ApplyThrow(ball: Ball): void" style="text;html=1;strokeColor=none;fillColor=none;align=left;verticalAlign=top;spacingLeft=4;spacingRight=4;whiteSpace=wrap;overflow=hidden;rotatable=0;points=[[0,0.5],[1,0.5]];portConstraint=eastwest;" vertex="1" parent="RacKedVcGH4FQBCkD5BQ-1">
          <mxGeometry y="138" width="200" height="26" as="geometry" />
        </mxCell>
        <mxCell id="RacKedVcGH4FQBCkD5BQ-9" value="Physics" style="swimlane;html=1;fontStyle=1;align=center;verticalAlign=top;childLayout=stackLayout;horizontal=1;startSize=26;horizontalStack=0;resizeParent=1;resizeLast=0;collapsible=1;marginBottom=0;swimlaneFillColor=#ffffff;rounded=0;shadow=0;comic=0;labelBackgroundColor=none;strokeWidth=1;fillColor=none;fontFamily=Verdana;fontSize=12" vertex="1" parent="1">
          <mxGeometry x="-520" y="-610" width="210" height="138" as="geometry" />
        </mxCell>
        <mxCell id="RacKedVcGH4FQBCkD5BQ-10" value="gravity: float" style="text;html=1;strokeColor=none;fillColor=none;align=left;verticalAlign=top;spacingLeft=4;spacingRight=4;whiteSpace=wrap;overflow=hidden;rotatable=0;points=[[0,0.5],[1,0.5]];portConstraint=eastwest;" vertex="1" parent="RacKedVcGH4FQBCkD5BQ-9">
          <mxGeometry y="26" width="210" height="26" as="geometry" />
        </mxCell>
        <mxCell id="RacKedVcGH4FQBCkD5BQ-11" value="friction: float" style="text;html=1;strokeColor=none;fillColor=none;align=left;verticalAlign=top;spacingLeft=4;spacingRight=4;whiteSpace=wrap;overflow=hidden;rotatable=0;points=[[0,0.5],[1,0.5]];portConstraint=eastwest;" vertex="1" parent="RacKedVcGH4FQBCkD5BQ-9">
          <mxGeometry y="52" width="210" height="26" as="geometry" />
        </mxCell>
        <mxCell id="RacKedVcGH4FQBCkD5BQ-12" value="" style="line;html=1;strokeWidth=1;fillColor=none;align=left;verticalAlign=middle;spacingTop=-1;spacingLeft=3;spacingRight=3;rotatable=0;labelPosition=right;points=[];portConstraint=eastwest;" vertex="1" parent="RacKedVcGH4FQBCkD5BQ-9">
          <mxGeometry y="78" width="210" height="8" as="geometry" />
        </mxCell>
        <mxCell id="RacKedVcGH4FQBCkD5BQ-13" value="ApplyForce(ball: Ball, force: vector3)" style="text;html=1;strokeColor=none;fillColor=none;align=left;verticalAlign=top;spacingLeft=4;spacingRight=4;whiteSpace=wrap;overflow=hidden;rotatable=0;points=[[0,0.5],[1,0.5]];portConstraint=eastwest;" vertex="1" parent="RacKedVcGH4FQBCkD5BQ-9">
          <mxGeometry y="86" width="210" height="26" as="geometry" />
        </mxCell>
        <mxCell id="RacKedVcGH4FQBCkD5BQ-14" value="applyFriction(delta): void" style="text;html=1;strokeColor=none;fillColor=none;align=left;verticalAlign=top;spacingLeft=4;spacingRight=4;whiteSpace=wrap;overflow=hidden;rotatable=0;points=[[0,0.5],[1,0.5]];portConstraint=eastwest;" vertex="1" parent="RacKedVcGH4FQBCkD5BQ-9">
          <mxGeometry y="112" width="210" height="26" as="geometry" />
        </mxCell>
        <mxCell id="RacKedVcGH4FQBCkD5BQ-24" value="Ball" style="swimlane;html=1;fontStyle=1;align=center;verticalAlign=top;childLayout=stackLayout;horizontal=1;startSize=26;horizontalStack=0;resizeParent=1;resizeLast=0;collapsible=1;marginBottom=0;swimlaneFillColor=#ffffff;rounded=0;shadow=0;comic=0;labelBackgroundColor=none;strokeWidth=1;fillColor=none;fontFamily=Verdana;fontSize=12" vertex="1" parent="1">
          <mxGeometry x="-280" y="-800" width="210" height="294" as="geometry" />
        </mxCell>
        <mxCell id="RacKedVcGH4FQBCkD5BQ-25" value="state: BallState: (air, ground, player)" style="text;html=1;strokeColor=none;fillColor=none;align=left;verticalAlign=top;spacingLeft=4;spacingRight=4;whiteSpace=wrap;overflow=hidden;rotatable=0;points=[[0,0.5],[1,0.5]];portConstraint=eastwest;" vertex="1" parent="RacKedVcGH4FQBCkD5BQ-24">
          <mxGeometry y="26" width="210" height="26" as="geometry" />
        </mxCell>
        <mxCell id="RacKedVcGH4FQBCkD5BQ-26" value="position: vector3" style="text;html=1;strokeColor=none;fillColor=none;align=left;verticalAlign=top;spacingLeft=4;spacingRight=4;whiteSpace=wrap;overflow=hidden;rotatable=0;points=[[0,0.5],[1,0.5]];portConstraint=eastwest;" vertex="1" parent="RacKedVcGH4FQBCkD5BQ-24">
          <mxGeometry y="52" width="210" height="26" as="geometry" />
        </mxCell>
        <mxCell id="RacKedVcGH4FQBCkD5BQ-27" value="owner: player" style="text;html=1;strokeColor=none;fillColor=none;align=left;verticalAlign=top;spacingLeft=4;spacingRight=4;whiteSpace=wrap;overflow=hidden;rotatable=0;points=[[0,0.5],[1,0.5]];portConstraint=eastwest;" vertex="1" parent="RacKedVcGH4FQBCkD5BQ-24">
          <mxGeometry y="78" width="210" height="26" as="geometry" />
        </mxCell>
        <mxCell id="RacKedVcGH4FQBCkD5BQ-28" value="hitbox: float (radius)" style="text;html=1;strokeColor=none;fillColor=none;align=left;verticalAlign=top;spacingLeft=4;spacingRight=4;whiteSpace=wrap;overflow=hidden;rotatable=0;points=[[0,0.5],[1,0.5]];portConstraint=eastwest;" vertex="1" parent="RacKedVcGH4FQBCkD5BQ-24">
          <mxGeometry y="104" width="210" height="26" as="geometry" />
        </mxCell>
        <mxCell id="RacKedVcGH4FQBCkD5BQ-29" value="" style="line;html=1;strokeWidth=1;fillColor=none;align=left;verticalAlign=middle;spacingTop=-1;spacingLeft=3;spacingRight=3;rotatable=0;labelPosition=right;points=[];portConstraint=eastwest;" vertex="1" parent="RacKedVcGH4FQBCkD5BQ-24">
          <mxGeometry y="130" width="210" height="30" as="geometry" />
        </mxCell>
        <mxCell id="RacKedVcGH4FQBCkD5BQ-30" value="checkCollision(): bool" style="text;html=1;strokeColor=none;fillColor=none;align=left;verticalAlign=top;spacingLeft=4;spacingRight=4;whiteSpace=wrap;overflow=hidden;rotatable=0;points=[[0,0.5],[1,0.5]];portConstraint=eastwest;" vertex="1" parent="RacKedVcGH4FQBCkD5BQ-24">
          <mxGeometry y="160" width="210" height="26" as="geometry" />
        </mxCell>
        <mxCell id="RacKedVcGH4FQBCkD5BQ-31" value="updatePosition(delta: float): void" style="text;html=1;strokeColor=none;fillColor=none;align=left;verticalAlign=top;spacingLeft=4;spacingRight=4;whiteSpace=wrap;overflow=hidden;rotatable=0;points=[[0,0.5],[1,0.5]];portConstraint=eastwest;" vertex="1" parent="RacKedVcGH4FQBCkD5BQ-24">
          <mxGeometry y="186" width="210" height="26" as="geometry" />
        </mxCell>
        <mxCell id="RacKedVcGH4FQBCkD5BQ-32" value="applyFriction(delta): void" style="text;html=1;strokeColor=none;fillColor=none;align=left;verticalAlign=top;spacingLeft=4;spacingRight=4;whiteSpace=wrap;overflow=hidden;rotatable=0;points=[[0,0.5],[1,0.5]];portConstraint=eastwest;" vertex="1" parent="RacKedVcGH4FQBCkD5BQ-24">
          <mxGeometry y="212" width="210" height="32" as="geometry" />
        </mxCell>
        <mxCell id="RacKedVcGH4FQBCkD5BQ-33" value="ballMovement(speed vector3, direction vector3, position vector3): void" style="text;html=1;strokeColor=none;fillColor=none;align=left;verticalAlign=top;spacingLeft=4;spacingRight=4;whiteSpace=wrap;overflow=hidden;rotatable=0;points=[[0,0.5],[1,0.5]];portConstraint=eastwest;" vertex="1" parent="RacKedVcGH4FQBCkD5BQ-24">
          <mxGeometry y="244" width="210" height="50" as="geometry" />
        </mxCell>
        <mxCell id="RacKedVcGH4FQBCkD5BQ-42" value="PLAYER" style="swimlane;fontStyle=1;align=center;verticalAlign=top;childLayout=stackLayout;horizontal=1;startSize=26;horizontalStack=0;resizeParent=1;resizeParentMax=0;resizeLast=0;collapsible=1;marginBottom=0;whiteSpace=wrap;html=1;fillColor=#dae8fc;strokeColor=#6c8ebf;" vertex="1" parent="1">
          <mxGeometry x="25" y="-780" width="240" height="520" as="geometry" />
        </mxCell>
        <mxCell id="RacKedVcGH4FQBCkD5BQ-43" value="+ rigidbody: Rigidbody&lt;br&gt;+ movementSpeed: float&lt;br&gt;+ jumpForce: float&lt;br&gt;+ velocity: Vector3&lt;br&gt;+ playerState: PlayerMovementState&lt;div&gt;+ position: vector3&lt;/div&gt;&lt;div&gt;+ maxVelocity: int&lt;/div&gt;&lt;div&gt;+ gravity: vector3&lt;/div&gt;&lt;div&gt;+ teamID: int&lt;/div&gt;&lt;div&gt;+ hasBall: boolean&lt;/div&gt;&lt;div&gt;+&lt;span style=&quot;background-color: transparent; color: light-dark(rgb(0, 0, 0), rgb(255, 255, 255));&quot;&gt;i sAlive - boolean&lt;/span&gt;&lt;/div&gt;&lt;div&gt;&lt;span style=&quot;background-color: transparent; color: light-dark(rgb(0, 0, 0), rgb(255, 255, 255));&quot;&gt;+&amp;nbsp;&lt;/span&gt;&lt;span style=&quot;background-color: transparent; color: light-dark(rgb(0, 0, 0), rgb(255, 255, 255));&quot;&gt;rotation: vector3 (where player is looking&lt;/span&gt;&lt;/div&gt;&lt;div&gt;&lt;span style=&quot;background-color: transparent; color: light-dark(rgb(0, 0, 0), rgb(255, 255, 255));&quot;&gt;+&amp;nbsp;&lt;/span&gt;&lt;span style=&quot;background-color: transparent; color: light-dark(rgb(0, 0, 0), rgb(255, 255, 255));&quot;&gt;hitbox: Hitbox&lt;/span&gt;&lt;/div&gt;" style="text;strokeColor=none;fillColor=none;align=left;verticalAlign=top;spacingLeft=4;spacingRight=4;overflow=hidden;rotatable=0;points=[[0,0.5],[1,0.5]];portConstraint=eastwest;whiteSpace=wrap;html=1;" vertex="1" parent="RacKedVcGH4FQBCkD5BQ-42">
          <mxGeometry y="26" width="240" height="194" as="geometry" />
        </mxCell>
        <mxCell id="RacKedVcGH4FQBCkD5BQ-44" value="" style="line;strokeWidth=1;fillColor=none;align=left;verticalAlign=middle;spacingTop=-1;spacingLeft=3;spacingRight=3;rotatable=0;labelPosition=right;points=[];portConstraint=eastwest;strokeColor=inherit;" vertex="1" parent="RacKedVcGH4FQBCkD5BQ-42">
          <mxGeometry y="220" width="240" height="8" as="geometry" />
        </mxCell>
        <mxCell id="RacKedVcGH4FQBCkD5BQ-45" value="+ ProcessMovementInput()&lt;br&gt;+ Jump()&lt;br&gt;+ GroundCheck()&lt;div&gt;+ duck(): Integer&lt;/div&gt;&lt;div&gt;+ changePositionZ(Vector3 velocity): Vector3&lt;/div&gt;&lt;div&gt;+ changeSpeedXY(Vector3 moveForward, vector3 moveLeft, vector3 moveRight, vector3 moveBack): Vector3&lt;/div&gt;&lt;div&gt;+ changePositionXY(Vector3 speed): Vector3&lt;/div&gt;&lt;div&gt;+ changeVelocityZ(int gravity): Vector3&lt;/div&gt;&lt;div&gt;+ ThrowBall(type: TypeOfThrow)&lt;/div&gt;&lt;div&gt;+ throwDirection (mousePosScreen Vector2, camera Camera3D): vector3&lt;/div&gt;&lt;div&gt;playerSlow(typeOfThrow enum): float&lt;/div&gt;&lt;div&gt;+&amp;nbsp;&lt;span style=&quot;text-wrap-mode: nowrap; background-color: transparent; color: light-dark(rgb(0, 0, 0), rgb(255, 255, 255));&quot;&gt;readyUp() - player is ready in lobby&lt;/span&gt;&lt;/div&gt;&lt;div&gt;&lt;span style=&quot;text-wrap-mode: nowrap; background-color: transparent; color: light-dark(rgb(0, 0, 0), rgb(255, 255, 255));&quot;&gt;+&amp;nbsp;&lt;/span&gt;&lt;span style=&quot;text-wrap-mode: nowrap; background-color: transparent; color: light-dark(rgb(0, 0, 0), rgb(255, 255, 255));&quot;&gt;loseLife() - player loses life if hit with ball&lt;/span&gt;&lt;span style=&quot;background-color: transparent; text-wrap-mode: nowrap; color: rgba(0, 0, 0, 0); font-family: monospace; font-size: 0px;&quot;&gt;%3CmxGraphModel%3E%3Croot%3E%3CmxCell%20id%3D%220%22%2F%3E%3CmxCell%20id%3D%221%22%20parent%3D%220%22%2F%3E%3CmxCell%20id%3D%222%22%20value%3D%22loseLife()%20-%20player%20loses%20life%20if%20hit%20with%20ball%22%20style%3D%22text%3Balign%3Dleft%3BverticalAlign%3Dtop%3BspacingLeft%3D4%3BspacingRight%3D4%3Boverflow%3Dhidden%3Brotatable%3D0%3Bpoints%3D%5B%5B0%2C0.5%5D%2C%5B1%2C0.5%5D%5D%3BportConstraint%3Deastwest%3Brounded%3D0%3Bshadow%3D0%3Bhtml%3D0%3BfillColor%3D%23FFFF99%3B%22%20vertex%3D%221%22%20parent%3D%221%22%3E%3CmxGeometry%20x%3D%22-750%22%20y%3D%22218%22%20width%3D%22410%22%20height%3D%2226%22%20as%3D%22geometry%22%2F%3E%3C%2FmxCell%3E%3C%2Froot%3E%3C%2FmxGraphModel%3E&lt;/span&gt;&lt;span style=&quot;background-color: transparent; text-wrap-mode: nowrap; color: rgba(0, 0, 0, 0); font-family: monospace; font-size: 0px;&quot;&gt;%3CmxGraphModel%3E%3Croot%3E%3CmxCell%20id%3D%220%22%2F%3E%3CmxCell%20id%3D%221%22%20parent%3D%220%22%2F%3E%3CmxCell%20id%3D%222%22%20value%3D%22loseLife()%20-%20player%20loses%20life%20if%20hit%20with%20ball%22%20style%3D%22text%3Balign%3Dleft%3BverticalAlign%3Dtop%3BspacingLeft%3D4%3BspacingRight%3D4%3Boverflow%3Dhidden%3Brotatable%3D0%3Bpoints%3D%5B%5B0%2C0.5%5D%2C%5B1%2C0.5%5D%5D%3BportConstraint%3Deastwest%3Brounded%3D0%3Bshadow%3D0%3Bhtml%3D0%3BfillColor%3D%23FFFF99%3B%22%20vertex%3D%221%22%20parent%3D%221%22%3E%3CmxGeometry%20x%3D%22-750%22%20y%3D%22218%22%20width%3D%22410%22%20height%3D%2226%22%20as%3D%22geometry%22%2F%3E%3C%2FmxCell%3E%3C%2Froot%3E%3C%2FmxGraphModel%3E&lt;/span&gt;&lt;/div&gt;&lt;div&gt;+&amp;nbsp;&lt;span style=&quot;background-color: transparent; color: light-dark(rgb(0, 0, 0), rgb(255, 255, 255));&quot;&gt;checkCollision(other: Hitbox): boolean&lt;/span&gt;&lt;/div&gt;" style="text;strokeColor=none;fillColor=none;align=left;verticalAlign=top;spacingLeft=4;spacingRight=4;overflow=hidden;rotatable=0;points=[[0,0.5],[1,0.5]];portConstraint=eastwest;whiteSpace=wrap;html=1;" vertex="1" parent="RacKedVcGH4FQBCkD5BQ-42">
          <mxGeometry y="228" width="240" height="292" as="geometry" />
        </mxCell>
        <mxCell id="RacKedVcGH4FQBCkD5BQ-46" value="Dodge System" style="swimlane;fontStyle=1;align=center;verticalAlign=top;childLayout=stackLayout;horizontal=1;startSize=26;horizontalStack=0;resizeParent=1;resizeParentMax=0;resizeLast=0;collapsible=1;marginBottom=0;whiteSpace=wrap;html=1;fillColor=#fff2cc;strokeColor=#d6b656;" vertex="1" parent="1">
          <mxGeometry x="-240" y="-90" width="220" height="230" as="geometry" />
        </mxCell>
        <mxCell id="RacKedVcGH4FQBCkD5BQ-47" value="+ dodgeCooldown: float&lt;br&gt;+ dodgeDuration: float&lt;br&gt;+ dodgeDistance: float&lt;br&gt;+ canDodge: bool&lt;br&gt;+ isDodging: bool&lt;br&gt;+ perfectDodgeWindow: float&lt;div&gt;+DodgingDirection: vector3&lt;/div&gt;" style="text;strokeColor=none;fillColor=none;align=left;verticalAlign=top;spacingLeft=4;spacingRight=4;overflow=hidden;rotatable=0;points=[[0,0.5],[1,0.5]];portConstraint=eastwest;whiteSpace=wrap;html=1;" vertex="1" parent="RacKedVcGH4FQBCkD5BQ-46">
          <mxGeometry y="26" width="220" height="134" as="geometry" />
        </mxCell>
        <mxCell id="RacKedVcGH4FQBCkD5BQ-48" value="" style="line;strokeWidth=1;fillColor=none;align=left;verticalAlign=middle;spacingTop=-1;spacingLeft=3;spacingRight=3;rotatable=0;labelPosition=right;points=[];portConstraint=eastwest;strokeColor=inherit;" vertex="1" parent="RacKedVcGH4FQBCkD5BQ-46">
          <mxGeometry y="160" width="220" height="8" as="geometry" />
        </mxCell>
        <mxCell id="RacKedVcGH4FQBCkD5BQ-49" value="+ PerformDodge()&lt;br&gt;+ UpdateDodgeCooldown()" style="text;strokeColor=none;fillColor=none;align=left;verticalAlign=top;spacingLeft=4;spacingRight=4;overflow=hidden;rotatable=0;points=[[0,0.5],[1,0.5]];portConstraint=eastwest;whiteSpace=wrap;html=1;" vertex="1" parent="RacKedVcGH4FQBCkD5BQ-46">
          <mxGeometry y="168" width="220" height="62" as="geometry" />
        </mxCell>
        <mxCell id="RacKedVcGH4FQBCkD5BQ-50" value="Aim State Controller" style="swimlane;fontStyle=1;align=center;verticalAlign=top;childLayout=stackLayout;horizontal=1;startSize=26;horizontalStack=0;resizeParent=1;resizeParentMax=0;resizeLast=0;collapsible=1;marginBottom=0;whiteSpace=wrap;html=1;fillColor=#fff2cc;strokeColor=#d6b656;" vertex="1" parent="1">
          <mxGeometry x="35" y="-90" width="220" height="170" as="geometry" />
        </mxCell>
        <mxCell id="RacKedVcGH4FQBCkD5BQ-51" value="+ isAiming: bool&lt;br&gt;+ aimStateMovementFactor: float&lt;br&gt;+ aimStateGravityFactor: float&lt;br&gt;+ aimStateMaxDuration: float&lt;br&gt;+ aimingFromAir: bool&lt;br&gt;+ hoverHeight: float" style="text;strokeColor=none;fillColor=none;align=left;verticalAlign=top;spacingLeft=4;spacingRight=4;overflow=hidden;rotatable=0;points=[[0,0.5],[1,0.5]];portConstraint=eastwest;whiteSpace=wrap;html=1;" vertex="1" parent="RacKedVcGH4FQBCkD5BQ-50">
          <mxGeometry y="26" width="220" height="94" as="geometry" />
        </mxCell>
        <mxCell id="RacKedVcGH4FQBCkD5BQ-52" value="" style="line;strokeWidth=1;fillColor=none;align=left;verticalAlign=middle;spacingTop=-1;spacingLeft=3;spacingRight=3;rotatable=0;labelPosition=right;points=[];portConstraint=eastwest;strokeColor=inherit;" vertex="1" parent="RacKedVcGH4FQBCkD5BQ-50">
          <mxGeometry y="120" width="220" height="8" as="geometry" />
        </mxCell>
        <mxCell id="RacKedVcGH4FQBCkD5BQ-53" value="+ EnterAimState()&lt;br&gt;+ HoverInAir()" style="text;strokeColor=none;fillColor=none;align=left;verticalAlign=top;spacingLeft=4;spacingRight=4;overflow=hidden;rotatable=0;points=[[0,0.5],[1,0.5]];portConstraint=eastwest;whiteSpace=wrap;html=1;" vertex="1" parent="RacKedVcGH4FQBCkD5BQ-50">
          <mxGeometry y="128" width="220" height="42" as="geometry" />
        </mxCell>
        <mxCell id="RacKedVcGH4FQBCkD5BQ-54" value="Input Handler" style="swimlane;fontStyle=1;align=center;verticalAlign=top;childLayout=stackLayout;horizontal=1;startSize=26;horizontalStack=0;resizeParent=1;resizeParentMax=0;resizeLast=0;collapsible=1;marginBottom=0;whiteSpace=wrap;html=1;fillColor=#f8cecc;strokeColor=#b85450;" vertex="1" parent="1">
          <mxGeometry x="400" y="-200" width="220" height="160" as="geometry" />
        </mxCell>
        <mxCell id="RacKedVcGH4FQBCkD5BQ-55" value="+ moveInput: Vector2&lt;br&gt;+ lookInput: Vector2&lt;br&gt;+ jumpInput: bool&lt;br&gt;+ sprintInput: bool&lt;br&gt;+ dodgeInput: bool&lt;br&gt;+ aimInput: bool" style="text;strokeColor=none;fillColor=none;align=left;verticalAlign=top;spacingLeft=4;spacingRight=4;overflow=hidden;rotatable=0;points=[[0,0.5],[1,0.5]];portConstraint=eastwest;whiteSpace=wrap;html=1;" vertex="1" parent="RacKedVcGH4FQBCkD5BQ-54">
          <mxGeometry y="26" width="220" height="94" as="geometry" />
        </mxCell>
        <mxCell id="RacKedVcGH4FQBCkD5BQ-56" value="" style="line;strokeWidth=1;fillColor=none;align=left;verticalAlign=middle;spacingTop=-1;spacingLeft=3;spacingRight=3;rotatable=0;labelPosition=right;points=[];portConstraint=eastwest;strokeColor=inherit;" vertex="1" parent="RacKedVcGH4FQBCkD5BQ-54">
          <mxGeometry y="120" width="220" height="8" as="geometry" />
        </mxCell>
        <mxCell id="RacKedVcGH4FQBCkD5BQ-57" value="+ ProcessInput()&lt;div&gt;&lt;br/&gt;&lt;/div&gt;" style="text;strokeColor=none;fillColor=none;align=left;verticalAlign=top;spacingLeft=4;spacingRight=4;overflow=hidden;rotatable=0;points=[[0,0.5],[1,0.5]];portConstraint=eastwest;whiteSpace=wrap;html=1;" vertex="1" parent="RacKedVcGH4FQBCkD5BQ-54">
          <mxGeometry y="128" width="220" height="32" as="geometry" />
        </mxCell>
        <mxCell id="RacKedVcGH4FQBCkD5BQ-59" value="" style="endArrow=open;html=1;rounded=0;exitX=0.5;exitY=1;exitDx=0;exitDy=0;entryX=0.5;entryY=0;entryDx=0;entryDy=0;endFill=0;strokeWidth=2;" edge="1" parent="1" source="RacKedVcGH4FQBCkD5BQ-42" target="RacKedVcGH4FQBCkD5BQ-50">
          <mxGeometry width="50" height="50" relative="1" as="geometry">
            <mxPoint x="120" y="-360" as="sourcePoint" />
            <mxPoint x="170" y="-410" as="targetPoint" />
          </mxGeometry>
        </mxCell>
        <mxCell id="RacKedVcGH4FQBCkD5BQ-188" style="edgeStyle=orthogonalEdgeStyle;rounded=0;orthogonalLoop=1;jettySize=auto;html=1;exitX=0.5;exitY=1;exitDx=0;exitDy=0;" edge="1" parent="1" source="RacKedVcGH4FQBCkD5BQ-61" target="RacKedVcGH4FQBCkD5BQ-54">
          <mxGeometry relative="1" as="geometry" />
        </mxCell>
        <mxCell id="RacKedVcGH4FQBCkD5BQ-61" value="movement" style="swimlane;html=1;fontStyle=1;align=center;verticalAlign=top;childLayout=stackLayout;horizontal=1;startSize=26;horizontalStack=0;resizeParent=1;resizeLast=0;collapsible=1;marginBottom=0;swimlaneFillColor=#ffffff;rounded=0;shadow=0;comic=0;labelBackgroundColor=none;strokeWidth=1;fillColor=#fff2cc;fontFamily=Verdana;fontSize=12;strokeColor=#d6b656;" vertex="1" parent="1">
          <mxGeometry x="450" y="-759" width="160" height="290" as="geometry" />
        </mxCell>
        <mxCell id="RacKedVcGH4FQBCkD5BQ-62" value="+ AccelerationXY: vector3" style="text;html=1;strokeColor=none;fillColor=none;align=left;verticalAlign=top;spacingLeft=4;spacingRight=4;whiteSpace=wrap;overflow=hidden;rotatable=0;points=[[0,0.5],[1,0.5]];portConstraint=eastwest;" vertex="1" parent="RacKedVcGH4FQBCkD5BQ-61">
          <mxGeometry y="26" width="160" height="34" as="geometry" />
        </mxCell>
        <mxCell id="RacKedVcGH4FQBCkD5BQ-63" value="VelocityUp: vector3" style="text;html=1;strokeColor=none;fillColor=none;align=left;verticalAlign=top;spacingLeft=4;spacingRight=4;whiteSpace=wrap;overflow=hidden;rotatable=0;points=[[0,0.5],[1,0.5]];portConstraint=eastwest;" vertex="1" parent="RacKedVcGH4FQBCkD5BQ-61">
          <mxGeometry y="60" width="160" height="26" as="geometry" />
        </mxCell>
        <mxCell id="RacKedVcGH4FQBCkD5BQ-64" value="" style="line;html=1;strokeWidth=1;fillColor=none;align=left;verticalAlign=middle;spacingTop=-1;spacingLeft=3;spacingRight=3;rotatable=0;labelPosition=right;points=[];portConstraint=eastwest;" vertex="1" parent="RacKedVcGH4FQBCkD5BQ-61">
          <mxGeometry y="86" width="160" height="8" as="geometry" />
        </mxCell>
        <mxCell id="RacKedVcGH4FQBCkD5BQ-65" value="+ moveForward(boolean W): Vector3" style="text;html=1;strokeColor=none;fillColor=none;align=left;verticalAlign=top;spacingLeft=4;spacingRight=4;whiteSpace=wrap;overflow=hidden;rotatable=0;points=[[0,0.5],[1,0.5]];portConstraint=eastwest;" vertex="1" parent="RacKedVcGH4FQBCkD5BQ-61">
          <mxGeometry y="94" width="160" height="36" as="geometry" />
        </mxCell>
        <mxCell id="RacKedVcGH4FQBCkD5BQ-66" value="+ moveLeft(boolean A): vector3" style="text;html=1;strokeColor=none;fillColor=none;align=left;verticalAlign=top;spacingLeft=4;spacingRight=4;whiteSpace=wrap;overflow=hidden;rotatable=0;points=[[0,0.5],[1,0.5]];portConstraint=eastwest;" vertex="1" parent="RacKedVcGH4FQBCkD5BQ-61">
          <mxGeometry y="130" width="160" height="40" as="geometry" />
        </mxCell>
        <mxCell id="RacKedVcGH4FQBCkD5BQ-67" value="+ moveRight(boolean D): vector3" style="text;html=1;strokeColor=none;fillColor=none;align=left;verticalAlign=top;spacingLeft=4;spacingRight=4;whiteSpace=wrap;overflow=hidden;rotatable=0;points=[[0,0.5],[1,0.5]];portConstraint=eastwest;" vertex="1" parent="RacKedVcGH4FQBCkD5BQ-61">
          <mxGeometry y="170" width="160" height="40" as="geometry" />
        </mxCell>
        <mxCell id="RacKedVcGH4FQBCkD5BQ-68" value="+ moveBack(boolean S): vector3" style="text;html=1;strokeColor=none;fillColor=none;align=left;verticalAlign=top;spacingLeft=4;spacingRight=4;whiteSpace=wrap;overflow=hidden;rotatable=0;points=[[0,0.5],[1,0.5]];portConstraint=eastwest;" vertex="1" parent="RacKedVcGH4FQBCkD5BQ-61">
          <mxGeometry y="210" width="160" height="40" as="geometry" />
        </mxCell>
        <mxCell id="RacKedVcGH4FQBCkD5BQ-69" value="+ moveUp(boolean space): vector3" style="text;html=1;strokeColor=none;fillColor=none;align=left;verticalAlign=top;spacingLeft=4;spacingRight=4;whiteSpace=wrap;overflow=hidden;rotatable=0;points=[[0,0.5],[1,0.5]];portConstraint=eastwest;" vertex="1" parent="RacKedVcGH4FQBCkD5BQ-61">
          <mxGeometry y="250" width="160" height="40" as="geometry" />
        </mxCell>
        <mxCell id="RacKedVcGH4FQBCkD5BQ-148" value="&lt;div&gt;Hitbox&lt;/div&gt;" style="swimlane;html=1;fontStyle=1;align=center;verticalAlign=top;childLayout=stackLayout;horizontal=1;startSize=26;horizontalStack=0;resizeParent=1;resizeLast=0;collapsible=1;marginBottom=0;swimlaneFillColor=#ffffff;rounded=0;shadow=0;comic=0;labelBackgroundColor=none;strokeWidth=1;fillColor=none;fontFamily=Verdana;fontSize=12" vertex="1" parent="1">
          <mxGeometry x="-500" y="-220" width="240" height="120" as="geometry" />
        </mxCell>
        <mxCell id="RacKedVcGH4FQBCkD5BQ-149" value="center: Vector 3" style="text;html=1;strokeColor=none;fillColor=none;align=left;verticalAlign=top;spacingLeft=4;spacingRight=4;whiteSpace=wrap;overflow=hidden;rotatable=0;points=[[0,0.5],[1,0.5]];portConstraint=eastwest;" vertex="1" parent="RacKedVcGH4FQBCkD5BQ-148">
          <mxGeometry y="26" width="240" height="26" as="geometry" />
        </mxCell>
        <mxCell id="RacKedVcGH4FQBCkD5BQ-150" value="size: vector3 (width, height, depth of box)" style="text;html=1;strokeColor=none;fillColor=none;align=left;verticalAlign=top;spacingLeft=4;spacingRight=4;whiteSpace=wrap;overflow=hidden;rotatable=0;points=[[0,0.5],[1,0.5]];portConstraint=eastwest;" vertex="1" parent="RacKedVcGH4FQBCkD5BQ-148">
          <mxGeometry y="52" width="240" height="26" as="geometry" />
        </mxCell>
        <mxCell id="RacKedVcGH4FQBCkD5BQ-152" value="" style="line;html=1;strokeWidth=1;fillColor=none;align=left;verticalAlign=middle;spacingTop=-1;spacingLeft=3;spacingRight=3;rotatable=0;labelPosition=right;points=[];portConstraint=eastwest;" vertex="1" parent="RacKedVcGH4FQBCkD5BQ-148">
          <mxGeometry y="78" width="240" height="8" as="geometry" />
        </mxCell>
        <mxCell id="RacKedVcGH4FQBCkD5BQ-153" value="ballCollision(other: Hitbox): boolean" style="text;html=1;strokeColor=none;fillColor=none;align=left;verticalAlign=top;spacingLeft=4;spacingRight=4;whiteSpace=wrap;overflow=hidden;rotatable=0;points=[[0,0.5],[1,0.5]];portConstraint=eastwest;" vertex="1" parent="RacKedVcGH4FQBCkD5BQ-148">
          <mxGeometry y="86" width="240" height="26" as="geometry" />
        </mxCell>
        <mxCell id="RacKedVcGH4FQBCkD5BQ-180" style="edgeStyle=orthogonalEdgeStyle;rounded=0;orthogonalLoop=1;jettySize=auto;html=1;exitX=0;exitY=0.5;exitDx=0;exitDy=0;entryX=1.008;entryY=0.141;entryDx=0;entryDy=0;entryPerimeter=0;" edge="1" parent="1" source="RacKedVcGH4FQBCkD5BQ-43" target="RacKedVcGH4FQBCkD5BQ-27">
          <mxGeometry relative="1" as="geometry" />
        </mxCell>
        <mxCell id="RacKedVcGH4FQBCkD5BQ-181" style="edgeStyle=orthogonalEdgeStyle;rounded=0;orthogonalLoop=1;jettySize=auto;html=1;exitX=0.5;exitY=0;exitDx=0;exitDy=0;entryX=0.579;entryY=0.987;entryDx=0;entryDy=0;entryPerimeter=0;" edge="1" parent="1" source="RacKedVcGH4FQBCkD5BQ-1" target="RacKedVcGH4FQBCkD5BQ-33">
          <mxGeometry relative="1" as="geometry" />
        </mxCell>
        <mxCell id="RacKedVcGH4FQBCkD5BQ-182" style="edgeStyle=orthogonalEdgeStyle;rounded=0;orthogonalLoop=1;jettySize=auto;html=1;exitX=0;exitY=0.5;exitDx=0;exitDy=0;entryX=0.5;entryY=0;entryDx=0;entryDy=0;" edge="1" parent="1" source="RacKedVcGH4FQBCkD5BQ-28" target="RacKedVcGH4FQBCkD5BQ-9">
          <mxGeometry relative="1" as="geometry" />
        </mxCell>
        <mxCell id="RacKedVcGH4FQBCkD5BQ-183" style="edgeStyle=orthogonalEdgeStyle;rounded=0;orthogonalLoop=1;jettySize=auto;html=1;exitX=0;exitY=0.5;exitDx=0;exitDy=0;entryX=1;entryY=0.5;entryDx=0;entryDy=0;" edge="1" parent="1" source="RacKedVcGH4FQBCkD5BQ-45" target="RacKedVcGH4FQBCkD5BQ-150">
          <mxGeometry relative="1" as="geometry">
            <Array as="points">
              <mxPoint x="25" y="-270" />
              <mxPoint x="-117" y="-270" />
              <mxPoint x="-117" y="-155" />
            </Array>
          </mxGeometry>
        </mxCell>
        <mxCell id="RacKedVcGH4FQBCkD5BQ-184" style="edgeStyle=orthogonalEdgeStyle;rounded=0;orthogonalLoop=1;jettySize=auto;html=1;exitX=0;exitY=0.5;exitDx=0;exitDy=0;entryX=0.5;entryY=0;entryDx=0;entryDy=0;" edge="1" parent="1" source="RacKedVcGH4FQBCkD5BQ-25" target="RacKedVcGH4FQBCkD5BQ-148">
          <mxGeometry relative="1" as="geometry">
            <Array as="points">
              <mxPoint x="-560" y="-761" />
              <mxPoint x="-560" y="-340" />
              <mxPoint x="-380" y="-340" />
            </Array>
          </mxGeometry>
        </mxCell>
        <mxCell id="RacKedVcGH4FQBCkD5BQ-185" style="edgeStyle=orthogonalEdgeStyle;rounded=0;orthogonalLoop=1;jettySize=auto;html=1;exitX=1;exitY=0.5;exitDx=0;exitDy=0;entryX=-0.014;entryY=0.603;entryDx=0;entryDy=0;entryPerimeter=0;" edge="1" parent="1" source="RacKedVcGH4FQBCkD5BQ-30" target="RacKedVcGH4FQBCkD5BQ-43">
          <mxGeometry relative="1" as="geometry" />
        </mxCell>
        <mxCell id="RacKedVcGH4FQBCkD5BQ-186" style="edgeStyle=orthogonalEdgeStyle;rounded=0;orthogonalLoop=1;jettySize=auto;html=1;exitX=1;exitY=0.5;exitDx=0;exitDy=0;entryX=0;entryY=0.5;entryDx=0;entryDy=0;" edge="1" parent="1" source="RacKedVcGH4FQBCkD5BQ-43" target="RacKedVcGH4FQBCkD5BQ-66">
          <mxGeometry relative="1" as="geometry" />
        </mxCell>
        <mxCell id="RacKedVcGH4FQBCkD5BQ-187" value="" style="endArrow=classic;html=1;rounded=0;entryX=0.644;entryY=0;entryDx=0;entryDy=0;entryPerimeter=0;exitX=0;exitY=1.011;exitDx=0;exitDy=0;exitPerimeter=0;" edge="1" parent="1" source="RacKedVcGH4FQBCkD5BQ-45" target="RacKedVcGH4FQBCkD5BQ-46">
          <mxGeometry width="50" height="50" relative="1" as="geometry">
            <mxPoint x="-40" y="-140" as="sourcePoint" />
            <mxPoint x="-80" y="-370" as="targetPoint" />
          </mxGeometry>
        </mxCell>
        <mxCell id="RacKedVcGH4FQBCkD5BQ-190" style="edgeStyle=orthogonalEdgeStyle;rounded=0;orthogonalLoop=1;jettySize=auto;html=1;exitX=0;exitY=0.5;exitDx=0;exitDy=0;entryX=1;entryY=0.5;entryDx=0;entryDy=0;" edge="1" parent="1" source="RacKedVcGH4FQBCkD5BQ-45" target="RacKedVcGH4FQBCkD5BQ-4">
          <mxGeometry relative="1" as="geometry" />
        </mxCell>
      </root>
    </mxGraphModel>
  </diagram>
</mxfile>
